<svg width="38" height="38" viewBox="0 0 38 38" fill="none" xmlns="http://www.w3.org/2000/svg">
<rect width="38" height="38" rx="19" fill="#1FA5FF"/>
<path d="M10.574 14.286L18.074 18.315C18.326 18.45 18.652 18.514 18.98 18.514C19.308 18.514 19.634 18.45 19.886 18.315L27.386 14.286C27.875 14.023 28.337 13 27.44 13H10.521C9.624 13 10.086 14.023 10.574 14.286V14.286ZM27.613 16.489L19.886 20.516C19.546 20.694 19.308 20.715 18.98 20.715C18.652 20.715 18.414 20.694 18.074 20.516C17.734 20.338 10.941 16.777 10.386 16.488C9.996 16.284 10 16.523 10 16.707V24C10 24.42 10.566 25 11 25H27C27.434 25 28 24.42 28 24V16.708C28 16.524 28.004 16.285 27.613 16.489V16.489Z" fill="white"/>
</svg>
