<svg width="35" height="35" viewBox="0 0 35 35" fill="none" xmlns="http://www.w3.org/2000/svg">
<rect width="35" height="35" rx="17.5" fill="white"/>
<path d="M25.9923 11.6268C26.0085 11.5343 25.999 11.4394 25.9647 11.3515C25.9305 11.2635 25.8726 11.1856 25.7969 11.1255C25.7213 11.0653 25.6304 11.025 25.5332 11.0084C25.4361 10.9919 25.3361 10.9998 25.2432 11.0312L9.37634 16.416C9.27175 16.4514 9.18043 16.5153 9.11371 16.5996C9.04699 16.684 9.00781 16.7851 9.00105 16.8904C8.99429 16.9957 9.02024 17.1006 9.07568 17.192C9.13111 17.2834 9.21359 17.3574 9.31287 17.4046L13.8463 19.5585C13.9356 19.601 14.0352 19.6203 14.1349 19.6145C14.2346 19.6086 14.3309 19.5778 14.4141 19.5252L18.1768 17.1408L15.9248 19.8181C15.8758 19.8764 15.8401 19.9437 15.8199 20.0158C15.7997 20.0879 15.7955 20.1631 15.8075 20.2368C15.8196 20.3106 15.8476 20.3811 15.8898 20.444C15.9321 20.5068 15.9876 20.5607 16.0529 20.6021L22.853 24.9099C22.9317 24.9597 23.0223 24.9899 23.1165 24.9979C23.2107 25.0058 23.3055 24.9913 23.3922 24.9555C23.479 24.9198 23.5549 24.864 23.6132 24.7932C23.6714 24.7224 23.7101 24.6389 23.7256 24.5502L25.9923 11.6268V11.6268Z" fill="#090A1F"/>
</svg>
