<svg width="38" height="38" viewBox="0 0 38 38" fill="none" xmlns="http://www.w3.org/2000/svg">
<rect width="38" height="38" rx="19" fill="#1FA5FF"/>
<path d="M27.9914 11.7163C28.0095 11.6106 27.9989 11.5021 27.9606 11.4017C27.9223 11.3012 27.8576 11.2122 27.7731 11.1434C27.6885 11.0746 27.5869 11.0285 27.4783 11.0096C27.3698 10.9907 27.258 10.9997 27.1542 11.0357L9.42062 17.1897C9.30372 17.2302 9.20165 17.3032 9.12708 17.3996C9.05251 17.496 9.00873 17.6115 9.00118 17.7319C8.99362 17.8522 9.02262 17.9721 9.08458 18.0766C9.14654 18.1811 9.23872 18.2656 9.34968 18.3196L14.4164 20.7812C14.5163 20.8298 14.6275 20.8518 14.739 20.8451C14.8504 20.8384 14.9581 20.8032 15.051 20.743L19.2564 18.018L16.7395 21.0778C16.6847 21.1444 16.6448 21.2213 16.6222 21.3037C16.5997 21.3861 16.595 21.4722 16.6084 21.5564C16.6219 21.6406 16.6532 21.7212 16.7004 21.7931C16.7476 21.865 16.8097 21.9265 16.8826 21.9738L24.4827 26.8971C24.5707 26.9539 24.672 26.9885 24.7772 26.9976C24.8825 27.0067 24.9885 26.99 25.0854 26.9492C25.1824 26.9083 25.2673 26.8445 25.3323 26.7636C25.3974 26.6827 25.4407 26.5873 25.4581 26.486L27.9914 11.7163V11.7163Z" fill="white"/>
</svg>
