<svg width="35" height="35" viewBox="0 0 35 35" fill="none" xmlns="http://www.w3.org/2000/svg">
<rect width="35" height="35" rx="17.5" fill="white"/>
<path d="M25 12.5442C24.4116 12.7981 23.7713 12.9808 23.1118 13.0519C23.7965 12.6451 24.3093 12.0023 24.5539 11.2442C23.9113 11.6265 23.2074 11.8946 22.4734 12.0365C22.1666 11.7085 21.7955 11.4472 21.3833 11.2689C20.9711 11.0905 20.5266 10.999 20.0775 11C18.2604 11 16.7991 12.4731 16.7991 14.2808C16.7991 14.5346 16.8298 14.7885 16.8798 15.0327C14.159 14.8904 11.7324 13.5904 10.1191 11.6C9.82514 12.1022 9.6711 12.6739 9.673 13.2558C9.673 14.3942 10.2518 15.3981 11.1344 15.9885C10.6142 15.968 10.1063 15.825 9.65184 15.5712V15.6115C9.65184 17.2058 10.7786 18.5269 12.2804 18.8308C11.9984 18.904 11.7083 18.9415 11.417 18.9423C11.2036 18.9423 11.0017 18.9212 10.7979 18.8923C11.2132 20.1923 12.4227 21.1365 13.8629 21.1673C12.7361 22.05 11.3247 22.5692 9.79221 22.5692C9.51725 22.5692 9.26343 22.5596 9 22.5288C10.4537 23.4615 12.1785 24 14.0359 24C20.066 24 23.3656 19.0038 23.3656 14.6673C23.3656 14.525 23.3656 14.3827 23.356 14.2404C23.9944 13.7731 24.5539 13.1942 25 12.5442Z" fill="#090A1F"/>
</svg>
