<svg width="35" height="35" viewBox="0 0 35 35" fill="none" xmlns="http://www.w3.org/2000/svg">
<rect width="35" height="35" rx="17.5" fill="white"/>
<path d="M15.6097 26.2044C15.6097 25.4395 15.6097 24.6709 15.6097 23.906C15.7265 23.9286 15.6813 24.0228 15.6813 24.0869C15.6851 24.701 15.6889 25.3152 15.6813 25.9293C15.6776 26.0838 15.719 26.1328 15.8773 26.1328C17.2563 26.1253 18.6353 26.1253 20.0143 26.1328C20.1801 26.1328 20.2065 26.0725 20.2065 25.9256C20.199 24.9836 20.2027 24.0454 20.2027 23.1035C20.2027 22.7531 20.2103 22.4027 20.2103 22.0522C20.3158 22.0975 20.2705 22.1954 20.2705 22.267C20.2743 23.5782 20.2743 24.8894 20.2743 26.2006C18.7257 26.2044 17.1659 26.2044 15.6097 26.2044Z" fill="#090A1F"/>
<path d="M20.2141 22.052C20.2103 22.4024 20.2065 22.7528 20.2065 23.1032C20.2065 24.0452 20.2028 24.9833 20.2103 25.9253C20.2103 26.0722 20.1839 26.1325 20.0182 26.1325C18.6391 26.125 17.2601 26.125 15.8811 26.1325C15.7228 26.1325 15.6814 26.0835 15.6852 25.9291C15.6927 25.3149 15.6889 24.7008 15.6852 24.0866C15.6852 24.0225 15.7304 23.9284 15.6136 23.9057C15.2481 23.9397 14.8864 24.0263 14.5134 24.0112C13.2511 23.9623 12.2715 23.431 11.6988 22.2856C11.3898 21.6677 11.0281 21.0912 10.6024 20.5524C10.4856 20.4054 10.3047 20.3451 10.1691 20.2246C10.1276 20.1869 10.0786 20.1568 10.0447 20.1115C9.95806 19.9872 9.99951 19.893 10.1502 19.8779C10.8473 19.8064 11.4237 20.0362 11.891 20.5599C12.1283 20.8274 12.2753 21.1552 12.5051 21.4303C12.9686 21.9842 13.5601 22.2856 14.276 22.3685C14.7093 22.4175 15.12 22.3346 15.5307 22.2102C15.6136 22.1876 15.6475 22.1349 15.655 22.0482C15.6814 21.6601 15.7605 21.2833 15.9112 20.9216C15.979 20.7596 16.0883 20.624 16.1712 20.4582C15.7831 20.3602 15.3913 20.3301 15.022 20.217C14.0009 19.9081 13.1042 19.4032 12.4524 18.5328C12.1396 18.1184 11.9211 17.6549 11.7968 17.1576C11.7289 16.8863 11.6498 16.615 11.6536 16.3286C11.6574 15.8275 11.6347 15.3226 11.6649 14.8215C11.6988 14.1885 11.7817 13.5593 12.0115 12.9678C12.1547 12.6023 12.3619 12.2669 12.6558 11.9919C12.7463 11.9052 12.7802 11.8374 12.7236 11.6942C12.4448 10.952 12.4185 10.1946 12.6558 9.43353C12.6634 9.41092 12.6671 9.38455 12.6709 9.35818C12.7538 8.97009 12.8405 8.93241 13.2097 9.07936C13.9331 9.36194 14.4644 9.8706 14.9165 10.4848C15.0446 10.6581 15.0183 10.7334 15.2933 10.5563C15.6588 10.3227 16.0845 10.2511 16.5065 10.2059C17.2639 10.1268 18.025 10.1494 18.7823 10.1645C19.3211 10.1758 19.8561 10.2474 20.3648 10.4358C20.4816 10.4772 20.5909 10.5413 20.6926 10.6166C20.7717 10.6769 20.8282 10.6769 20.9036 10.5752C21.2465 10.0929 21.6383 9.65583 22.147 9.34687C22.3957 9.19616 22.6519 9.05675 22.9533 9.02284C23.0776 9.00777 23.1304 9.04921 23.1643 9.14718C23.477 10.01 23.5222 10.8691 23.1568 11.7281C23.1115 11.8336 23.1266 11.9015 23.2057 11.973C23.8086 12.5382 24.0271 13.2729 24.1402 14.0642C24.2344 14.7311 24.2607 15.4018 24.2419 16.0724C24.2117 17.248 23.8124 18.2728 22.9458 19.0905C22.4371 19.569 21.8267 19.8855 21.1711 20.1266C20.7039 20.2999 20.2103 20.3452 19.7205 20.4657C19.7695 20.5825 19.8599 20.6692 19.8825 20.786C19.8712 20.835 19.8976 20.8613 19.9428 20.8726C19.9466 20.8953 19.9541 20.9141 19.9579 20.9367C19.9692 21.0158 19.9616 21.0987 20.0521 21.1402C20.0709 21.2231 20.0897 21.3097 20.1048 21.3926C20.101 21.4567 20.0784 21.5245 20.1651 21.5546C20.1651 21.5772 20.1689 21.5998 20.1689 21.6262C20.1124 21.7129 20.1651 21.7807 20.2103 21.8523C20.2103 21.905 20.2141 21.9804 20.2141 22.052Z" fill="#090A1F"/>
<path d="M20.2066 21.834C20.1652 21.7624 20.1086 21.6946 20.1652 21.6079C20.2104 21.6795 20.2443 21.7511 20.2066 21.834Z" fill="#090A1F"/>
<path d="M20.0445 21.1258C19.9541 21.0844 19.9616 21.0015 19.9503 20.9224C20.0332 20.9676 20.0445 21.0429 20.0445 21.1258Z" fill="#090A1F"/>
<path d="M20.1613 21.5356C20.0746 21.5054 20.0972 21.4376 20.101 21.3735C20.1877 21.4037 20.1688 21.4753 20.1613 21.5356Z" fill="#090A1F"/>
<path d="M19.9352 20.8572C19.89 20.8459 19.8636 20.8195 19.8749 20.7705C19.9239 20.7818 19.9465 20.8082 19.9352 20.8572Z" fill="#090A1F"/>
</svg>
