<svg width="35" height="35" viewBox="0 0 35 35" fill="none" xmlns="http://www.w3.org/2000/svg">
<rect width="35" height="35" rx="17.5" fill="white"/>
<path d="M11.779 14.448C11.7882 14.3567 11.7759 14.2645 11.7431 14.1788C11.7102 14.0931 11.6578 14.0163 11.59 13.9545L10.189 12.2543V12H14.5375L17.899 19.4287L20.854 12H25V12.2543L23.8022 13.41C23.7515 13.4492 23.7123 13.5014 23.689 13.5611C23.6656 13.6208 23.6589 13.6858 23.6695 13.749V22.2495C23.6589 22.3127 23.6656 22.3777 23.689 22.4374C23.7123 22.4971 23.7515 22.5493 23.8022 22.5885L24.9722 23.745V24H19.0893V23.7457L20.3012 22.5607C20.4205 22.4407 20.4205 22.4055 20.4205 22.2225V15.351L17.0515 23.9715H16.597L12.6745 15.351V21.129C12.6422 21.3713 12.7225 21.6165 12.892 21.792L14.4677 23.718V23.9715H10V23.718L11.575 21.792C11.6583 21.705 11.7202 21.5998 11.7556 21.4847C11.791 21.3696 11.799 21.2478 11.779 21.129V14.448Z" fill="#090A1F"/>
</svg>
