<svg width="228" height="32" viewBox="0 0 228 32" fill="none" xmlns="http://www.w3.org/2000/svg">
<path d="M42.4129 12.5169C41.9646 12.4064 41.4403 12.2882 40.8361 12.1643C40.1955 12.0362 39.5438 11.9723 38.8906 11.9737C38.515 11.9785 38.14 12.0065 37.7678 12.0575C37.4336 12.0964 37.1027 12.1601 36.7779 12.2481V25.7809H31.7794V9.02315C32.8195 8.66907 33.8781 8.37195 34.9504 8.13305C36.2887 7.83977 37.6556 7.69845 39.0255 7.7118C39.2934 7.7118 39.6164 7.72896 39.9982 7.76136C40.3801 7.79376 40.7582 7.84143 41.1381 7.8967C41.5181 7.95198 41.8981 8.02058 42.2781 8.09873C42.6106 8.16268 42.9364 8.25842 43.2508 8.38463L42.4129 12.5169Z" fill="white"/>
<path d="M62.105 16.8929C62.1192 18.1887 61.915 19.4775 61.501 20.705C61.1321 21.8036 60.538 22.8126 59.7569 23.6669C58.9924 24.4916 58.06 25.1417 57.0229 25.573C55.8895 26.0358 54.6748 26.2646 53.4513 26.2458C52.2389 26.2629 51.0356 26.034 49.9137 25.573C48.8764 25.1422 47.9439 24.492 47.1798 23.6669C46.3952 22.8091 45.7905 21.8018 45.4016 20.705C44.9655 19.4823 44.75 18.1914 44.7651 16.8929C44.7468 15.5927 44.9684 14.3003 45.4186 13.0809C45.8185 11.9922 46.4345 10.9962 47.2292 10.1532C48.007 9.34146 48.9436 8.69969 49.9802 8.26816C51.0805 7.8124 52.261 7.58357 53.4513 7.59533C54.6528 7.58141 55.8448 7.81023 56.9564 8.26816C57.9895 8.69713 58.921 9.3394 59.6903 10.1532C60.4742 10.9985 61.0791 11.9945 61.4686 13.0809C61.9066 14.303 62.1222 15.5942 62.105 16.8929ZM57.0077 16.8929C57.0077 15.3427 56.7 14.1254 56.0844 13.241C55.4689 12.3566 54.5912 11.9118 53.4513 11.9067C52.3113 11.9067 51.4247 12.3515 50.7915 13.241C50.1582 14.1304 49.8453 15.3478 49.8529 16.8929C49.8529 18.4406 50.1658 19.6687 50.7915 20.5772C51.0804 21.0148 51.477 21.3702 51.943 21.609C52.4089 21.8477 52.9285 21.9618 53.4513 21.9401C53.9708 21.9634 54.4874 21.8507 54.9504 21.6131C55.4133 21.3755 55.8068 21.0212 56.092 20.5849C56.7025 19.6713 57.0077 18.4406 57.0077 16.8929Z" fill="white"/>
<path d="M64.3184 32C63.8528 31.9902 63.3881 31.9565 62.9259 31.899C62.3388 31.8377 61.7598 31.7137 61.1989 31.5292L61.8696 27.458C62.1706 27.5612 62.4793 27.6402 62.7929 27.6943C63.1428 27.7432 63.4959 27.7655 63.8492 27.761C64.6319 27.761 65.1797 27.5253 65.4925 27.0539C65.8054 26.5824 65.9618 25.8982 65.9618 25.0011V8.07559H70.9603V25.1364C70.9603 27.4694 70.3903 29.1969 69.2504 30.3189C68.1105 31.4409 66.4665 32.0013 64.3184 32ZM71.4296 2.96174C71.4296 3.88044 71.1332 4.60346 70.5404 5.13079C69.9602 5.64055 69.2152 5.92154 68.444 5.92154C67.6727 5.92154 66.9277 5.64055 66.3475 5.13079C65.7547 4.60473 65.4583 3.88171 65.4583 2.96174C65.4583 2.04176 65.7547 1.3181 66.3475 0.790772C66.9277 0.281014 67.6727 0 68.444 0C69.2152 0 69.9602 0.281014 70.5404 0.790772C71.1332 1.31938 71.4296 2.04303 71.4296 2.96174V2.96174Z" fill="white"/>
<path d="M74.8166 17.0608C74.7871 15.6526 75.0317 14.2522 75.5366 12.938C75.9675 11.8389 76.6135 10.8376 77.4365 9.99323C78.2044 9.21894 79.1235 8.61219 80.1362 8.21108C81.1338 7.81074 82.1983 7.60503 83.2728 7.60498C85.7768 7.60498 87.7552 8.3731 89.208 9.90936C90.6607 11.4456 91.3877 13.7061 91.389 16.691C91.389 16.9826 91.3776 17.3009 91.3548 17.644C91.332 17.9871 91.3111 18.2997 91.2883 18.5684H79.9519C79.9962 19.0594 80.1485 19.5345 80.3979 19.9593C80.6472 20.3842 80.9874 20.7482 81.3939 21.0253C82.2425 21.6314 83.3824 21.9345 84.8136 21.9345C85.7195 21.9357 86.6234 21.8509 87.5133 21.681C88.2552 21.5542 88.9808 21.3458 89.6772 21.0596L90.3479 25.1309C90.0014 25.294 89.6424 25.4291 89.2745 25.5349C88.7833 25.6788 88.2848 25.7965 87.7811 25.8875C87.234 25.9892 86.6469 26.0731 86.02 26.1391C85.3966 26.207 84.77 26.2407 84.1429 26.2402C82.5547 26.2402 81.1735 26.0051 79.9993 25.5349C78.8974 25.1117 77.9014 24.4513 77.0812 23.6003C76.3027 22.769 75.7186 21.7741 75.3713 20.6879C74.9945 19.5164 74.8072 18.2918 74.8166 17.0608V17.0608ZM86.5558 15.1414C86.5338 14.7191 86.4605 14.3011 86.3373 13.8968C86.2196 13.5038 86.0259 13.1379 85.7674 12.8199C85.499 12.4981 85.168 12.2348 84.7946 12.046C84.3392 11.83 83.839 11.7261 83.3355 11.7429C82.8398 11.7311 82.3475 11.8287 81.8935 12.0289C81.5078 12.2085 81.1645 12.4684 80.8866 12.7913C80.614 13.1134 80.404 13.4838 80.2673 13.8834C80.1225 14.2933 80.0156 14.7157 79.948 15.1452L86.5558 15.1414Z" fill="white"/>
<path d="M94.4045 16.9255C94.3962 15.691 94.6066 14.4648 95.0257 13.3041C95.4163 12.2007 96.0308 11.1906 96.8303 10.3376C97.6298 9.48461 98.5971 8.80728 99.6708 8.3484C100.88 7.83781 102.182 7.58593 103.493 7.60886C104.361 7.60166 105.227 7.68598 106.077 7.86044C106.858 8.02892 107.622 8.27145 108.357 8.58474L107.318 12.5874C106.814 12.3972 106.299 12.2399 105.775 12.1166C105.159 11.9753 104.528 11.9075 103.896 11.9146C102.421 11.9146 101.319 12.3739 100.592 13.2926C99.8652 14.2113 99.5018 15.4229 99.5018 16.9274C99.5018 18.5208 99.8431 19.7547 100.526 20.6289C101.208 21.5031 102.399 21.9409 104.098 21.9421C104.749 21.9377 105.4 21.881 106.043 21.7725C106.699 21.6723 107.341 21.4918 107.954 21.235L108.659 25.3406C107.955 25.6234 107.225 25.8373 106.48 25.9791C105.529 26.1656 104.562 26.2556 103.594 26.2478C101.985 26.2478 100.599 26.0071 99.4353 25.5255C98.3445 25.0933 97.3646 24.4203 96.5683 23.5565C95.8085 22.7102 95.247 21.704 94.925 20.6117C94.5684 19.4161 94.3929 18.1735 94.4045 16.9255V16.9255Z" fill="white"/>
<path d="M111.845 3.66708L116.843 2.86084V8.07572H122.847V12.248H116.843V18.4731C116.843 19.529 117.028 20.3702 117.396 20.9967C117.765 21.6231 118.508 21.9376 119.627 21.9401C120.184 21.938 120.739 21.887 121.287 21.7877C121.819 21.6973 122.341 21.5569 122.847 21.3683L123.552 25.2699C122.898 25.5339 122.224 25.7479 121.538 25.9104C120.646 26.1056 119.734 26.1958 118.821 26.1791C117.457 26.1791 116.328 25.9942 115.434 25.6245C114.6 25.298 113.861 24.7657 113.287 24.0768C112.731 23.3729 112.347 22.5486 112.164 21.6695C111.942 20.642 111.835 19.5929 111.845 18.5417V3.66708Z" fill="white"/>
<path d="M132.572 24.296C134.385 24.296 135.794 23.9644 136.799 23.3011C137.805 22.6378 138.308 21.5641 138.308 20.0799C138.334 19.3355 138.166 18.5971 137.822 17.9375C137.5 17.3672 137.06 16.8727 136.532 16.487C135.96 16.0764 135.341 15.7377 134.687 15.4788C133.994 15.2005 133.267 14.9051 132.506 14.5925C131.624 14.251 130.762 13.8603 129.924 13.4222C129.217 13.0599 128.562 12.6027 127.978 12.0632C127.454 11.5774 127.037 10.9873 126.753 10.3306C126.46 9.60467 126.318 8.82636 126.335 8.04335C126.335 6.04838 126.994 4.53437 128.313 3.50131C129.631 2.46824 131.468 1.95234 133.822 1.95362C134.44 1.95335 135.056 1.99857 135.667 2.08894C136.238 2.17206 136.803 2.28984 137.36 2.44157C137.85 2.57565 138.331 2.73857 138.802 2.9295C139.185 3.08024 139.55 3.27195 139.892 3.50131L139.087 5.41878C138.361 4.93553 137.564 4.57196 136.723 4.34187C135.747 4.06684 134.736 3.93146 133.722 3.9397C133.039 3.93351 132.358 4.00643 131.693 4.15699C131.12 4.28474 130.578 4.52507 130.099 4.86412C129.656 5.1846 129.294 5.60505 129.042 6.09158C128.773 6.64639 128.642 7.25878 128.662 7.87562C128.642 8.50544 128.781 9.13019 129.065 9.69207C129.341 10.1961 129.724 10.6328 130.188 10.971C130.715 11.3579 131.284 11.6851 131.883 11.9469C132.531 12.2392 133.235 12.5422 133.995 12.8561C134.911 13.2373 135.777 13.6185 136.594 13.9997C137.361 14.3509 138.077 14.8035 138.724 15.3453C139.331 15.8655 139.822 16.5077 140.166 17.2304C140.549 18.0864 140.732 19.0183 140.704 19.956C140.704 22.0666 139.971 23.648 138.505 24.7001C137.04 25.7522 135.056 26.2796 132.553 26.2821C131.734 26.2877 130.915 26.2317 130.104 26.1144C129.436 26.0165 128.775 25.8758 128.125 25.6931C127.622 25.5535 127.129 25.3797 126.65 25.1728C126.328 25.034 126.014 24.8762 125.71 24.7001L126.449 22.7159C126.671 22.8494 126.973 23.0076 127.353 23.1867C127.79 23.3877 128.239 23.5621 128.697 23.709C129.954 24.1081 131.266 24.3068 132.586 24.2979L132.572 24.296Z" fill="white"/>
<path d="M146.829 8.38649H153.744V10.2372H146.829V19.491C146.809 20.3003 146.893 21.1087 147.08 21.8964C147.202 22.4251 147.449 22.9162 147.802 23.3278C148.107 23.6602 148.504 23.8943 148.942 24.0006C149.425 24.1171 149.921 24.1734 150.418 24.1684C151.169 24.1937 151.918 24.0853 152.631 23.8482C153.08 23.6831 153.516 23.4843 153.934 23.2535L154.472 25.0718C153.952 25.362 153.4 25.5928 152.829 25.7599C152.005 26.0228 151.144 26.1515 150.279 26.1411C149.361 26.1668 148.447 26.0247 147.579 25.7218C146.889 25.4691 146.285 25.0257 145.835 24.4428C145.371 23.8093 145.056 23.079 144.912 22.3062C144.72 21.3084 144.63 20.2936 144.644 19.2775V3.26691L146.825 2.86475L146.829 8.38649Z" fill="white"/>
<path d="M163.029 7.97476C164.018 7.94906 165.003 8.11473 165.93 8.46271C166.67 8.75129 167.331 9.21255 167.858 9.80835C168.361 10.3998 168.727 11.0947 168.932 11.844C169.161 12.677 169.273 13.5379 169.266 14.4019V25.371C168.946 25.4615 168.621 25.5347 168.293 25.5902C167.87 25.6703 167.379 25.7548 166.819 25.8437C166.259 25.9333 165.639 26.0057 164.957 26.061C164.275 26.1163 163.576 26.1449 162.867 26.1449C162.014 26.1531 161.163 26.0519 160.335 25.8437C159.607 25.6647 158.923 25.3406 158.323 24.8907C157.747 24.4474 157.287 23.8706 156.982 23.2096C156.636 22.4201 156.47 21.5633 156.495 20.7013C156.472 19.8618 156.656 19.0296 157.031 18.2787C157.389 17.6064 157.908 17.0339 158.542 16.6129C159.247 16.154 160.032 15.8308 160.856 15.6599C161.814 15.4511 162.793 15.3494 163.774 15.3568C164.087 15.3568 164.416 15.3739 164.764 15.4083C165.111 15.4426 165.446 15.4864 165.769 15.5436C166.092 15.6008 166.373 15.6561 166.608 15.7113C166.775 15.7455 166.938 15.7959 167.095 15.8619V14.785C167.095 14.1934 167.05 13.6027 166.96 13.0181C166.878 12.4658 166.677 11.9378 166.373 11.4704C166.052 10.9946 165.613 10.6119 165.098 10.3611C164.551 10.0816 163.83 9.94115 162.936 9.93988C161.66 9.93988 160.71 10.0295 160.086 10.2086C159.459 10.3992 159.001 10.5346 158.711 10.647L158.408 8.72765C158.975 8.49343 159.565 8.32461 160.17 8.22446C161.113 8.04953 162.07 7.96591 163.029 7.97476ZM163.228 24.195C164.08 24.195 164.824 24.1664 165.461 24.1093C166.006 24.0663 166.549 23.9937 167.087 23.892V17.7679C166.707 17.6142 166.314 17.4955 165.913 17.4134C165.184 17.2715 164.442 17.2076 163.7 17.2228C163.138 17.2248 162.578 17.2642 162.022 17.341C161.46 17.4134 160.916 17.5843 160.413 17.8461C159.93 18.0951 159.515 18.4589 159.205 18.9058C158.892 19.3531 158.735 19.9471 158.735 20.6879C158.719 21.2549 158.827 21.8184 159.053 22.3385C159.253 22.7718 159.566 23.1431 159.959 23.4135C160.386 23.6996 160.865 23.8997 161.368 24.0025C161.979 24.1352 162.603 24.1998 163.228 24.195V24.195Z" fill="white"/>
<path d="M180.737 8.04104C181.417 8.03837 182.096 8.09514 182.766 8.21068C183.221 8.27305 183.667 8.38555 184.096 8.54615L183.661 10.4312C183.31 10.2942 182.944 10.1983 182.571 10.1453C181.855 10.0313 181.131 9.98032 180.407 9.99283C179.647 9.97631 178.889 10.0441 178.144 10.1949C177.76 10.272 177.383 10.385 177.019 10.5322V25.7804H174.833V9.19801C175.584 8.88543 176.357 8.63056 177.147 8.4356C178.322 8.15353 179.529 8.02096 180.737 8.04104V8.04104Z" fill="white"/>
<path d="M189.423 8.38614H196.333V10.2369H189.423V19.4906C189.403 20.3 189.488 21.1086 189.676 21.896C189.797 22.4245 190.044 22.9157 190.396 23.3275C190.702 23.6589 191.099 23.8929 191.536 24.0003C192.019 24.1165 192.515 24.1729 193.012 24.168C193.763 24.1937 194.513 24.0853 195.226 23.8478C195.676 23.6851 196.114 23.4882 196.535 23.2588L197.07 25.0772C196.55 25.3673 195.999 25.5981 195.427 25.7653C194.603 26.0282 193.743 26.1569 192.879 26.1465C191.961 26.172 191.045 26.0299 190.178 25.7271C189.488 25.4734 188.884 25.0302 188.434 24.4482C187.971 23.8141 187.656 23.0839 187.512 22.3116C187.32 21.3138 187.23 20.299 187.244 19.2829V3.27229L189.423 2.87012V8.38614Z" fill="white"/>
<path d="M199.318 17.0606C199.29 15.7025 199.511 14.3508 199.971 13.0732C200.356 12.025 200.937 11.0599 201.681 10.2294C202.352 9.49119 203.176 8.91061 204.096 8.52927C204.984 8.16296 205.936 7.97453 206.896 7.97461C209.02 7.97461 210.715 8.67348 211.979 10.0712C213.243 11.469 213.876 13.6114 213.878 16.4984C213.878 16.6775 213.873 16.8567 213.861 17.0359C213.85 17.2265 213.833 17.3847 213.812 17.541H201.636C201.704 19.6719 202.23 21.3098 203.213 22.4547C204.195 23.5996 205.761 24.1714 207.909 24.1701C209.093 24.1701 210.033 24.0576 210.727 23.8327C211.242 23.6778 211.746 23.4867 212.235 23.2609L212.638 25.146C212.074 25.4193 211.484 25.6333 210.877 25.7845C209.885 26.0484 208.862 26.1728 207.837 26.1543C206.317 26.1543 205.021 25.93 203.948 25.4814C202.928 25.0735 202.02 24.428 201.298 23.5983C200.589 22.7621 200.073 21.7794 199.787 20.7202C199.463 19.528 199.305 18.2964 199.318 17.0606ZM211.627 15.6807C211.583 13.8636 211.158 12.4506 210.352 11.4417C209.547 10.4328 208.407 9.92448 206.933 9.91686C206.209 9.90589 205.492 10.0672 204.843 10.3876C204.23 10.7003 203.684 11.1287 203.234 11.6494C202.768 12.1902 202.404 12.8115 202.16 13.483C201.902 14.1857 201.749 14.9232 201.708 15.6711L211.627 15.6807Z" fill="white"/>
<path d="M224.641 8.041C225.321 8.03824 226 8.095 226.67 8.21064C227.124 8.2732 227.57 8.3857 228 8.5461L227.563 10.4312C227.212 10.2936 226.846 10.1977 226.473 10.1453C225.758 10.0313 225.034 9.98026 224.311 9.99279C223.551 9.97619 222.791 10.0439 222.046 10.1948C221.662 10.2718 221.286 10.3848 220.923 10.5322V25.7804H218.738V9.19797C219.489 8.88538 220.263 8.63051 221.052 8.43556C222.227 8.15374 223.433 8.02118 224.641 8.041V8.041Z" fill="white"/>
<path d="M16.3565 12.2517V10.4829L15.7048 11.1672C15.9898 11.6418 16.195 11.9887 16.3565 12.2517Z" fill="white"/>
<path d="M11.3296 5.14586C11.7155 5.49469 12.0808 5.86571 12.4239 6.25706L15.6023 5.75387L15.8588 5.71194L16.0488 5.90255L16.8278 6.66496L17.3141 6.63257C17.6827 6.61224 18.0576 6.60143 18.4388 6.60016C19.1345 6.59504 19.8295 6.6454 20.5173 6.75074C21.0776 6.82844 21.6184 7.01143 22.1113 7.29014C22.5335 7.53381 22.8816 7.88833 23.1181 8.31558C23.3691 8.81605 23.49 9.37201 23.4696 9.93188C23.4696 11.2775 23.0111 12.1975 22.0941 12.6918C21.1771 13.1861 19.813 13.4326 18.0018 13.4313H16.8961C16.9016 13.6196 16.8549 13.8057 16.7612 13.9689C17.6649 14.2306 18.6002 14.3659 19.5407 14.371C21.3646 14.371 22.9605 13.7992 24.0586 12.7814C25.1016 11.7979 26.1218 10.0234 25.8539 7.99156C25.5594 5.76342 24.0624 4.03466 21.4045 2.8453L19.9036 2.17819C19.3298 2.13753 18.7295 2.11719 18.1025 2.11719C17.1412 2.11719 16.0228 2.16229 14.7474 2.25251C13.5312 2.3342 12.3212 2.49145 11.1244 2.72331V4.97241C11.1909 5.02768 11.2555 5.08487 11.3296 5.14586Z" fill="white"/>
<path d="M16.1418 18.3741C15.3525 18.0164 14.6161 17.5514 13.9532 16.9922L13.539 17.4325C13.4418 17.5375 13.3243 17.6216 13.1936 17.6796C13.063 17.7376 12.9219 17.7683 12.779 17.7698C12.6796 17.7694 12.5809 17.7533 12.4865 17.7222C12.4086 17.6974 12.2603 17.6479 11.1185 17.0437V22.8494L16.3527 27.8413V18.4636C16.2843 18.4331 16.2121 18.4065 16.1418 18.3741Z" fill="white"/>
<path d="M28.3541 5.58615C26.3555 3.02445 22.3202 2.48695 21.6078 2.36496C23.6539 3.27604 25.9774 4.93809 26.3574 7.91339C26.6462 10.0977 25.5746 12.0456 24.4005 13.1511C22.457 14.9828 19.1759 15.4021 15.836 14.2166L16.2159 13.8163C16.2823 13.7503 16.3289 13.6669 16.3504 13.5756C16.3719 13.4842 16.3675 13.3887 16.3375 13.2998C16.2616 13.1092 15.7049 12.181 15.0419 11.106L16.2672 9.81942L19.573 10.0748L15.6764 6.26277L12.2092 6.81361C11.828 6.35691 11.4154 5.92763 10.9743 5.52896C8.50446 3.30463 5.08472 1.4939 0.525074 1.52631C0.453651 1.52699 0.383088 1.54214 0.317649 1.57086C0.25221 1.59958 0.193244 1.64127 0.144269 1.69343C0.0952935 1.74559 0.0573402 1.80715 0.032671 1.8744C0.00800181 1.94165 -0.00292071 2.01319 0.000666635 2.08476C0.127112 4.93987 1.06092 7.69992 2.69284 10.0424C3.61208 11.3537 4.73151 12.5115 6.00997 13.4732L5.63 16.7878L9.59307 20.5293L9.19223 17.2281L10.3321 16.0369C11.4588 16.6449 12.441 17.1614 12.6366 17.2262C12.7269 17.2508 12.8223 17.2496 12.912 17.2226C13.0016 17.1957 13.0819 17.1441 13.1439 17.0737L13.9038 16.2675C14.6225 16.9402 15.4458 17.4907 16.3413 17.8971C20.711 19.8737 27.1022 18.387 29.1996 13.8773C30.3091 11.5234 30.3547 8.14594 28.3541 5.58615ZM8.46076 9.45154C8.19775 9.72704 7.85918 9.91812 7.48792 10.0006C7.11667 10.0831 6.72937 10.0533 6.37501 9.91493C6.02064 9.77659 5.71511 9.53594 5.49707 9.22341C5.27902 8.91088 5.15826 8.54051 5.15003 8.15911C5.14179 7.77772 5.24652 7.40243 5.45087 7.08072C5.65522 6.75901 5.95004 6.5053 6.2981 6.3517C6.64616 6.19809 7.03182 6.1515 7.40629 6.21777C7.78075 6.28404 8.12719 6.46022 8.40186 6.72404C8.58487 6.89872 8.73174 7.1079 8.83406 7.33961C8.93637 7.57132 8.99216 7.821 8.99816 8.07435C9.00416 8.32771 8.96026 8.57976 8.86903 8.81608C8.7778 9.0524 8.64096 9.26834 8.46642 9.45154H8.46076Z" fill="white"/>
</svg>
