<svg width="115" height="31" viewBox="0 0 115 31" fill="none" xmlns="http://www.w3.org/2000/svg">
<path d="M32.0889 3.73479H37.3792C38.7235 3.73479 39.7064 4.09391 40.3424 4.71162C40.9639 5.24313 41.2386 5.96138 41.2386 6.66528C41.2386 6.93821 41.2386 7.28298 41.1518 7.55592C40.9784 8.00124 40.7037 8.44655 40.3424 8.80568C40.1689 8.97807 39.981 9.07862 39.8076 9.16481C40.4291 9.33719 40.9784 9.69633 41.4265 10.1416C41.7878 10.587 41.9613 11.1185 41.9613 11.9229C41.9613 12.3682 41.8746 12.8998 41.6867 13.2589C41.5132 13.618 41.1518 13.9771 40.7905 14.2357C40.3424 14.5087 39.8943 14.681 39.4462 14.8534C38.9114 15.0258 38.2754 15.0258 37.6538 15.0258H32.1756V3.70605H32.0889V3.73479ZM36.9311 8.36036C37.3792 8.36036 37.8273 8.27417 38.2754 8.08743C38.6368 7.91504 38.8102 7.55592 38.8102 7.19679C38.8102 6.83766 38.6368 6.47853 38.3621 6.30615C38.0008 6.03321 37.5527 5.94702 37.1046 6.03321H34.5895V8.43219H36.9167V8.36036H36.9311ZM37.5527 12.9141C38.0008 12.9141 38.4488 12.8279 38.8969 12.6412C39.2583 12.4688 39.4318 12.1097 39.345 11.6643C39.345 11.3052 39.1716 10.9461 38.8969 10.7737C38.6223 10.6013 38.0875 10.4146 37.4659 10.4146H34.5028V12.9141H37.5527Z" fill="#828997"/>
<path d="M45.0835 3.73486H47.5986V15.1408H45.0835V3.73486Z" fill="#828997"/>
<path d="M51.458 3.73486H53.7852L59.1623 10.7738V3.73486H61.6629V15.1408H59.5236L53.8719 7.91512V15.1408H51.458V3.73486Z" fill="#828997"/>
<path d="M69.2949 3.64893H71.6221L76.5511 15.141H73.9493L72.8797 12.5553H68.0374L66.9678 15.141H64.366L69.2949 3.64893ZM71.9835 10.4149L70.4658 6.67997L68.948 10.4149H71.9835Z" fill="#828997"/>
<path d="M79.2395 3.73486H81.5667L86.9438 10.7738V3.73486H89.4588V15.1408H87.3051L81.7401 7.91512V15.1408H79.2395V3.73486Z" fill="#828997"/>
<path d="M98.594 15.3132C97.7846 15.3132 96.9751 15.1408 96.2669 14.8679C94.8359 14.2502 93.7518 13.1728 93.1302 11.7506C92.8556 11.0324 92.6821 10.2423 92.6821 9.43785C92.6821 7.92951 93.3037 6.4068 94.3878 5.25759C94.9226 4.72608 95.5586 4.28076 96.2669 4.00782C97.0763 3.64869 97.8857 3.5625 98.6807 3.5625C99.1288 3.5625 99.6637 3.5625 100.112 3.64869C100.56 3.73488 100.921 3.82107 101.283 4.00782C101.644 4.1802 102.005 4.36695 102.265 4.53933C102.54 4.71171 102.887 4.98465 103.162 5.25759L101.644 7.12506C101.196 6.76593 100.748 6.4068 100.3 6.14823C99.8516 5.88965 99.3167 5.7891 98.7819 5.7891C98.3338 5.7891 97.8858 5.87529 97.4377 6.06204C96.9896 6.23442 96.6282 6.50736 96.368 6.86648C96.1078 7.22561 95.8332 7.58474 95.6453 8.03006C95.4718 8.47538 95.3707 8.9207 95.3707 9.36602C95.3707 9.81134 95.4574 10.3429 95.6453 10.7882C95.8332 11.2335 96.0067 11.5926 96.368 11.9517C96.9896 12.67 97.8857 13.0148 98.7819 13.0148C99.3167 13.0148 99.9527 12.9286 100.488 12.6556C100.936 12.3827 101.47 12.0379 101.832 11.6788L103.436 13.2733C103.162 13.5463 102.815 13.891 102.54 14.164C102.179 14.4369 101.817 14.6093 101.47 14.7817C101.109 14.9541 100.661 15.1408 100.213 15.227C99.5769 15.3132 99.0421 15.3132 98.594 15.3132Z" fill="#828997"/>
<path d="M106.313 3.73486H114.913V5.96146H108.727V8.27425H114.19V10.5008H108.727V12.9142H115V15.1408H106.313V3.73486Z" fill="#828997"/>
<path d="M35.3124 26.3602C34.6908 26.3602 34.0548 26.274 33.52 26.0011C32.9852 25.8287 32.4504 25.4696 31.9011 25.0243L32.7973 24.0474C33.1587 24.4066 33.52 24.5789 33.9681 24.8519C34.4162 25.0243 34.8643 25.1248 35.3124 25.1248C35.6737 25.1248 36.0351 25.0386 36.382 24.8519C36.6567 24.6795 36.7434 24.4066 36.7434 24.1336C36.7434 24.0474 36.7434 23.8607 36.6567 23.7745C36.5699 23.6883 36.4832 23.5016 36.382 23.4154C36.2086 23.3292 36.0207 23.243 35.8472 23.1424C35.5726 23.0562 35.2257 22.97 34.951 22.8695C34.5897 22.7833 34.1416 22.6971 33.7802 22.5104C33.5056 22.4242 33.1587 22.2374 32.9708 22.065C32.7973 21.8927 32.6094 21.7059 32.4359 21.4473C32.2625 21.0882 32.2625 20.7291 32.2625 20.4705C32.2625 20.1114 32.3492 19.8528 32.4359 19.4937C32.5227 19.2207 32.7973 18.9622 32.9708 18.7754C33.2454 18.603 33.5056 18.4163 33.8669 18.3301C34.2283 18.2439 34.5897 18.1577 34.9366 18.1577C35.4714 18.1577 36.0062 18.2439 36.5555 18.4307C37.0036 18.603 37.4517 18.876 37.8997 19.1489L37.177 20.2119C36.8157 19.939 36.4543 19.7666 36.1074 19.5942C35.746 19.4218 35.3847 19.4218 35.0377 19.4218C34.6764 19.4218 34.315 19.508 34.0548 19.6948C33.8814 19.8672 33.6935 20.1401 33.6935 20.413C33.6935 20.5854 33.6935 20.686 33.7802 20.8584C33.8669 20.9446 33.9537 21.1313 34.0548 21.2175C34.2283 21.3037 34.4162 21.3899 34.6764 21.4904C34.951 21.5766 35.2112 21.6628 35.6593 21.7634C36.0207 21.8496 36.382 21.9358 36.8301 22.1225C37.1047 22.2087 37.3649 22.3954 37.6396 22.5678C37.813 22.7402 38.0009 23.0131 38.0876 23.1855C38.1744 23.4585 38.2611 23.717 38.2611 24.0762C38.2611 24.4353 38.1744 24.7944 38.0876 25.053C37.9142 25.3259 37.7263 25.5845 37.4661 25.8574C37.1915 26.0298 36.9313 26.2166 36.5699 26.3028C36.1218 26.274 35.6737 26.3602 35.3124 26.3602Z" fill="#828997"/>
<path d="M39.7932 18.2583H41.3254L43.7393 21.9932L46.2544 18.2583H47.7721V26.2741H46.3411V20.4849L43.826 24.2198H43.7393L41.2387 20.4849V26.2741H39.7932V18.2583Z" fill="#828997"/>
<path d="M52.6144 18.1719H53.9587L57.4567 26.1876H55.9389L55.1295 24.234H51.3713L50.5619 26.1876H49.1309L52.6144 18.1719ZM54.6814 23.0704L53.2504 19.867L51.9061 23.0704H54.6814Z" fill="#828997"/>
<path d="M58.8876 18.2583H62.4723C62.9204 18.2583 63.3685 18.3445 63.8166 18.4307C64.178 18.5169 64.5393 18.7898 64.7995 19.0484C64.973 19.2208 65.1609 19.4937 65.3343 19.8528C65.4211 20.1258 65.5078 20.4705 65.5078 20.8297C65.5078 21.1026 65.4211 21.4474 65.3343 21.7203C65.2476 21.9932 65.0597 22.1656 64.973 22.4386C64.7995 22.6109 64.6116 22.7977 64.3514 22.9701C64.0768 23.1425 63.8166 23.243 63.542 23.3292L65.6957 26.3602H63.9901L62.0243 23.6021H60.2319V26.3602H58.8009L58.8876 18.2583ZM62.3856 22.18C62.8337 22.18 63.2818 22.0938 63.5564 21.8209C63.8311 21.5479 64.0045 21.2032 64.0045 20.844C64.0045 20.4849 63.8311 20.1258 63.5564 19.8672C63.1951 19.5943 62.747 19.5081 62.2989 19.5081H60.2319V22.18H62.3856Z" fill="#828997"/>
<path d="M69.1936 19.5081H66.5918V18.2583H73.1397V19.5081H70.5379V26.2741H69.1069L69.1936 19.5081Z" fill="#828997"/>
<path d="M81.8413 26.3602C81.3065 26.3602 80.7717 26.274 80.2224 26.0011C79.2395 25.5557 78.4301 24.8375 78.0687 23.8607C77.8953 23.3291 77.7073 22.7976 77.7941 22.2518C77.7941 21.7202 77.8808 21.1887 78.0687 20.6429C78.4301 19.666 79.2395 18.8616 80.2224 18.4163C80.7572 18.2439 81.2921 18.0571 81.9281 18.0571C82.2894 18.0571 82.6508 18.0571 82.911 18.1433C83.1856 18.2295 83.4458 18.3157 83.7204 18.4163C83.995 18.5024 84.1685 18.6892 84.4431 18.7754C84.6166 18.9478 84.8912 19.1345 85.0647 19.3069L84.1685 20.3699C83.8939 20.097 83.547 19.8384 83.1856 19.6517C82.8242 19.4793 82.3761 19.3787 81.9281 19.3787C81.5667 19.3787 81.2053 19.4649 80.8584 19.5511C80.4971 19.7235 80.2369 19.9102 79.9622 20.1688C79.6876 20.4417 79.5142 20.7003 79.4274 21.0594C79.3407 21.4186 79.254 21.7777 79.254 22.1225C79.254 22.4816 79.3407 22.8407 79.4274 23.1855C79.5142 23.5303 79.7021 23.8032 79.9622 24.0761C80.2369 24.3491 80.4971 24.5214 80.8584 24.6938C81.2198 24.8662 81.5811 24.9668 81.9281 24.8662C82.3761 24.8662 82.8242 24.78 83.1856 24.5933C83.547 24.4209 83.9083 24.148 84.2552 23.7888L85.1514 24.6795C84.978 24.8518 84.7033 25.1248 84.5299 25.2972C84.2552 25.4695 84.0818 25.6563 83.8071 25.7425C83.5325 25.8287 83.2723 26.0154 82.911 26.0154C82.5496 26.3602 82.1882 26.3602 81.8413 26.3602Z" fill="#828997"/>
<path d="M86.5825 18.2583H87.9268V21.5479H91.7861V18.2583H93.2171V26.2741H91.7861V22.8839H87.9268V26.2741H86.5825V18.2583Z" fill="#828997"/>
<path d="M98.146 18.1719H99.4903L102.988 26.1876H101.471L100.661 24.234H96.9029L96.0935 26.1876H94.6625L98.146 18.1719ZM100.126 23.0704L98.782 19.867L97.4377 23.0704H100.126Z" fill="#828997"/>
<path d="M104.419 18.2583H105.865V26.2741H104.419V18.2583Z" fill="#828997"/>
<path d="M108.004 18.2583H109.262L113.569 23.7745V18.2583H115V26.2741H113.829L109.449 20.5711V26.2741H108.004V18.2583Z" fill="#828997"/>
<path d="M16.3191 25.7423V29.2187L13.2692 31L10.3061 29.2187V25.7423L13.2692 27.5236L16.3191 25.7423ZM0 13.7187L2.96317 15.5V21.4615L8.06561 24.4926V27.9689L0 23.2428V13.7187V13.7187ZM26.5385 13.7187V23.2572L18.3861 27.9833V24.5069L23.4886 21.4759V15.5144L26.5385 13.7187ZM18.3717 8.99259L21.4216 10.7739V14.2502L16.3191 17.2813V23.329L13.356 25.1103L10.4072 23.329V17.2669L5.11689 14.2359V10.7595L8.16679 8.97822L13.2692 12.0093L18.3717 8.99259ZM5.11689 16.7354L8.08006 18.5167V21.993L5.11689 20.2118V16.7354ZM21.4216 16.7354V20.2118L18.4584 21.993V18.5167L21.4216 16.7354ZM2.96317 5.96154L6.01307 7.74282L2.96317 9.52409V13.0005L0 11.2192V7.74282L2.96317 5.96154ZM23.5753 5.96154L26.6252 7.74282V11.2192L23.5753 13.0005V9.52409L20.6121 7.74282L23.5753 5.96154ZM13.2692 5.96154L16.3191 7.74282L13.2692 9.52409L10.3061 7.74282L13.2692 5.96154ZM13.2692 0L21.4216 4.72613L18.4584 6.50741L13.356 3.47636L8.15234 6.50741L5.18917 4.72613L13.2692 0Z" fill="#828997"/>
</svg>
