<svg width="124" height="31" viewBox="0 0 124 31" fill="none" xmlns="http://www.w3.org/2000/svg">
<path d="M26.6117 20.2452C26.32 20.2452 26.1741 20.171 26.0282 20.0968C25.9553 19.9485 25.8823 19.8001 25.8823 19.5775V11.2678C25.8823 11.0452 25.9553 10.8227 26.0282 10.7485C26.1741 10.6001 26.32 10.5259 26.6117 10.5259H30.04C31.3529 10.5259 32.3011 10.8227 32.9576 11.342C33.5411 11.9356 33.9059 12.7517 33.9059 13.8646C33.9059 14.9775 33.6141 15.7936 32.9576 16.3872C32.3741 16.9065 31.3529 17.2033 30.04 17.2033H28.727V19.5033C28.727 19.7259 28.6541 19.9485 28.5811 20.0227C28.4353 20.171 28.2894 20.171 27.9976 20.171H26.6117V20.2452ZM29.8211 15.1259C30.1859 15.1259 30.4776 15.0517 30.6964 14.8291C30.9153 14.6065 30.9882 14.3098 30.9882 13.8646C30.9882 13.4194 30.9153 13.1227 30.6964 12.9001C30.4776 12.6775 30.1859 12.6033 29.8211 12.6033H28.727V15.1259H29.8211V15.1259Z" fill="#828997"/>
<path d="M37.1883 20.4677C36.313 20.4677 35.5836 20.1709 35.073 19.5774C34.5624 18.9839 34.2706 18.1677 34.2706 17.129C34.2706 16.3129 34.4165 15.6451 34.7812 15.0516C35.1459 14.458 35.6565 14.0129 36.313 13.6419C36.9695 13.3451 37.7718 13.1226 38.5742 13.1226C39.3036 13.1226 39.8871 13.1968 40.4706 13.3451C41.0542 13.4935 41.4918 13.7161 42.0024 14.0129V19.7258C42.0024 19.8742 42.0024 20.0226 41.9295 20.0968C41.8565 20.1709 41.7106 20.1709 41.5647 20.1709H40.1059C40.033 20.1709 39.8871 20.1709 39.8871 20.0968C39.8142 20.0226 39.8142 20.0226 39.7412 19.9484L39.5224 19.5032C39.2306 19.8 38.9389 20.0226 38.5742 20.1709C38.2095 20.3935 37.6989 20.4677 37.1883 20.4677ZM38.2095 18.5387C38.5742 18.5387 38.8659 18.4645 39.0847 18.2419C39.3036 18.0935 39.3765 17.7968 39.3765 17.5V15.2742C39.2306 15.2 38.9389 15.1258 38.72 15.1258C38.2095 15.1258 37.8447 15.2742 37.553 15.6451C37.2612 16.0161 37.1153 16.4613 37.1153 17.129C37.1153 18.0193 37.48 18.5387 38.2095 18.5387Z" fill="#828997"/>
<path d="M43.9717 20.2452C43.68 20.2452 43.5341 20.171 43.3882 20.0968C43.2423 19.9484 43.2423 19.8 43.2423 19.5774V13.7903C43.2423 13.6419 43.2423 13.4936 43.3152 13.4194C43.3882 13.3452 43.5341 13.3452 43.68 13.3452H45.1388C45.2847 13.3452 45.3576 13.3452 45.3576 13.4194C45.4305 13.4194 45.4305 13.4936 45.5035 13.5677L45.5764 14.0129C45.8682 13.7161 46.16 13.5677 46.5976 13.4194C47.0352 13.271 47.4729 13.1968 48.0564 13.1968C48.7858 13.1968 49.4423 13.4194 49.8799 13.8645C50.3176 14.3097 50.6094 14.9032 50.6094 15.7936V19.5774C50.6094 19.8 50.5364 20.0226 50.4635 20.0968C50.3905 20.2452 50.1717 20.2452 49.8799 20.2452H48.4941C48.2023 20.2452 48.0564 20.171 47.9105 20.0968C47.7647 19.9484 47.7647 19.8 47.7647 19.5774V15.9419C47.7647 15.6452 47.6917 15.4226 47.5458 15.3484C47.3999 15.2 47.2541 15.1258 46.9623 15.1258C46.6705 15.1258 46.4517 15.2 46.3058 15.3484C46.16 15.4968 46.087 15.7194 46.087 15.9419V19.5032C46.087 19.7258 46.0141 19.9484 45.9411 20.0226C45.8682 20.171 45.6494 20.171 45.3576 20.171H43.9717V20.2452Z" fill="#828997"/>
<path d="M55.5694 20.4677C54.2564 20.4677 53.2353 20.171 52.5059 19.5032C51.7764 18.9097 51.4117 18.0194 51.4117 16.8323C51.4117 16.0903 51.5576 15.4968 51.9223 14.9032C52.2141 14.3839 52.7247 13.9387 53.3082 13.6419C53.9647 13.3452 54.6941 13.1968 55.4965 13.1968C56.1529 13.1968 56.6635 13.271 57.1012 13.4194C57.5388 13.5677 57.9765 13.7161 58.2682 14.0129C58.3412 14.0871 58.4141 14.1613 58.4141 14.2355C58.4141 14.3097 58.3412 14.3839 58.2682 14.5323L57.6847 15.571C57.6117 15.7194 57.5388 15.7936 57.4659 15.7936C57.3929 15.7936 57.32 15.7194 57.1741 15.6452C56.9553 15.4968 56.6635 15.3484 56.4447 15.2742C56.2259 15.2 55.9341 15.1258 55.6423 15.1258C55.2047 15.1258 54.767 15.2742 54.4753 15.571C54.1835 15.8677 54.0376 16.3129 54.0376 16.8323C54.0376 17.3516 54.1835 17.7968 54.4753 18.0936C54.767 18.3903 55.1317 18.5387 55.6423 18.5387C55.9341 18.5387 56.2259 18.4645 56.4447 18.3903C56.6635 18.3161 56.9553 18.1677 57.1741 18.0194C57.32 17.9452 57.3929 17.871 57.4659 17.871C57.5388 17.871 57.6117 17.9452 57.6847 18.0936L58.3412 19.2065C58.4141 19.2807 58.4141 19.3548 58.4141 19.429C58.4141 19.5032 58.3412 19.5774 58.2682 19.6516C57.9035 19.8742 57.4659 20.0968 56.9553 20.2452C56.7365 20.3935 56.2259 20.4677 55.5694 20.4677Z" fill="#828997"/>
<path d="M62.2071 20.4677C61.3318 20.4677 60.6024 20.1709 60.0918 19.5774C59.5812 18.9839 59.2894 18.1677 59.2894 17.129C59.2894 16.3129 59.4353 15.6451 59.8 15.0516C60.1647 14.458 60.6753 14.0129 61.3318 13.6419C61.9883 13.3451 62.7906 13.1226 63.593 13.1226C64.3224 13.1226 64.9059 13.1968 65.4894 13.3451C66.073 13.4935 66.5106 13.7161 67.0212 14.0129V19.7258C67.0212 19.8742 67.0212 20.0226 66.9483 20.0968C66.8753 20.1709 66.7294 20.1709 66.5836 20.1709H65.1247C65.0518 20.1709 64.9059 20.1709 64.9059 20.0968C64.833 20.0226 64.833 20.0226 64.76 19.9484L64.5412 19.5032C64.2494 19.8 63.9577 20.0226 63.593 20.1709C63.2283 20.3935 62.7906 20.4677 62.2071 20.4677ZM63.3012 18.5387C63.6659 18.5387 63.9577 18.4645 64.1765 18.2419C64.3953 18.0935 64.4683 17.7968 64.4683 17.5V15.2742C64.3224 15.2 64.0306 15.1258 63.8118 15.1258C63.3012 15.1258 62.9365 15.2742 62.6447 15.6451C62.353 16.0161 62.2071 16.4613 62.2071 17.129C62.1341 18.0193 62.4988 18.5387 63.3012 18.5387Z" fill="#828997"/>
<path d="M75.9199 19.7259C75.9929 19.8001 75.9929 19.8743 75.9929 19.9485C75.9929 20.0227 75.9929 20.0968 75.9199 20.171C75.847 20.2452 75.7741 20.2452 75.7011 20.2452H73.5129C73.367 20.2452 73.2941 20.2452 73.2211 20.2452C73.1482 20.2452 73.0752 20.171 73.0023 20.0968L71.1058 17.4259V19.5033C71.1058 19.7259 71.0329 19.9485 70.9599 20.0227C70.8141 20.171 70.6682 20.171 70.3764 20.171H68.9905C68.6988 20.171 68.5529 20.0968 68.407 20.0227C68.3341 19.8743 68.2611 19.7259 68.2611 19.5033V11.2678C68.2611 11.0452 68.3341 10.8227 68.407 10.7485C68.5529 10.6001 68.6988 10.5259 68.9905 10.5259H70.3764C70.6682 10.5259 70.8141 10.6001 70.9599 10.7485C71.1058 10.8968 71.1058 11.0452 71.1058 11.2678V16.0162L72.9293 13.5678C73.0023 13.4936 73.0752 13.4194 73.1482 13.4194C73.2211 13.4194 73.294 13.3452 73.4399 13.3452H75.6282C75.7011 13.3452 75.7741 13.3452 75.847 13.4194C75.9199 13.4936 75.9199 13.5678 75.9199 13.642C75.9199 13.7162 75.9199 13.7904 75.847 13.8646L73.4399 16.6839L75.9199 19.7259Z" fill="#828997"/>
<path d="M80.4424 20.4678C79.64 20.4678 78.9836 20.3194 78.3271 20.0968C77.7436 19.8 77.233 19.4291 76.8683 18.9097C76.5036 18.3904 76.3577 17.7226 76.3577 16.9807C76.3577 15.7936 76.7224 14.8291 77.3788 14.2355C78.0353 13.5678 79.0565 13.271 80.2965 13.271C81.5365 13.271 82.4847 13.5678 83.0683 14.2355C83.7247 14.8291 84.0165 15.7194 84.0165 16.8323C84.0165 17.2774 83.7977 17.5742 83.433 17.5742H79.0565C79.0565 18.0194 79.2024 18.3162 79.4941 18.5387C79.7859 18.7613 80.2965 18.8355 80.88 18.8355C81.2447 18.8355 81.6094 18.8355 81.8283 18.7613C82.12 18.6871 82.3388 18.5387 82.6306 18.4645C82.7765 18.3904 82.8494 18.3904 82.8494 18.3904C82.9224 18.3904 82.9953 18.4645 83.0683 18.5387L83.5788 19.4291C83.6518 19.5033 83.6518 19.5774 83.6518 19.6516C83.6518 19.7258 83.5788 19.8 83.5059 19.8742C83.1412 20.0968 82.7035 20.3194 82.193 20.4678C81.6094 20.3936 81.0988 20.4678 80.4424 20.4678ZM81.5365 16.0162C81.5365 15.6452 81.4636 15.3484 81.2447 15.2C81.0259 14.9774 80.7341 14.9033 80.2965 14.9033C79.8588 14.9033 79.5671 14.9774 79.3483 15.2C79.1294 15.4226 79.0565 15.6452 79.0565 16.0162H81.5365Z" fill="#828997"/>
<path d="M88.9035 20.4678C88.1011 20.4678 87.3717 20.3936 86.6423 20.2452C85.9129 20.0968 85.4023 19.8 84.9647 19.5033C84.8188 19.4291 84.7458 19.2807 84.7458 19.2065C84.7458 19.1323 84.7459 19.0581 84.8188 18.9839L85.4753 17.871C85.5482 17.7226 85.6211 17.7226 85.6941 17.7226C85.767 17.7226 85.84 17.7226 85.9129 17.7968C86.2776 18.0194 86.6423 18.1678 87.08 18.3162C87.5176 18.4646 87.9553 18.5388 88.3929 18.5388C88.8306 18.5388 89.1223 18.4646 89.3411 18.3162C89.56 18.1678 89.6329 17.9452 89.6329 17.6484C89.6329 17.3517 89.487 17.1291 89.2682 16.9807C89.0494 16.8323 88.6117 16.6097 87.9553 16.3871C87.007 16.0162 86.2776 15.6452 85.767 15.2C85.2564 14.7549 84.9647 14.0871 84.9647 13.3452C84.9647 12.3807 85.3294 11.713 85.9859 11.1936C86.6423 10.6742 87.5176 10.4517 88.6117 10.4517C89.4141 10.4517 90.0706 10.5259 90.5811 10.6742C91.1647 10.8226 91.6023 11.0452 91.967 11.2678C92.1129 11.4162 92.1858 11.4904 92.1858 11.6388C92.1858 11.7129 92.1859 11.7871 92.1129 11.8613L91.4564 12.9742C91.3835 13.1226 91.3106 13.1226 91.2376 13.1226C91.1647 13.1226 91.0917 13.1226 91.0188 13.0484C90.5082 12.6775 89.8517 12.5291 89.0494 12.5291C88.6117 12.5291 88.32 12.6033 88.1011 12.7517C87.8823 12.9 87.8094 13.1226 87.8094 13.4194C87.8094 13.642 87.8823 13.7904 87.9553 13.9388C88.1011 14.0871 88.247 14.1613 88.3929 14.3097C88.6117 14.3839 88.9035 14.5323 89.2682 14.6807L89.56 14.7549C90.2164 15.0517 90.8 15.2742 91.1647 15.571C91.6023 15.7936 91.8941 16.1646 92.1129 16.5355C92.3317 16.9065 92.4047 17.3517 92.4047 17.871C92.4047 18.6871 92.1129 19.4291 91.4564 19.8742C91.0188 20.171 90.0706 20.4678 88.9035 20.4678Z" fill="#828997"/>
<path d="M95.5412 20.2452C95.3953 20.2452 95.3224 20.2452 95.2494 20.171C95.1765 20.0968 95.1036 20.0226 95.1036 19.8742L93.28 13.7162C93.28 13.642 93.28 13.642 93.28 13.5678C93.28 13.4194 93.353 13.3452 93.5718 13.3452H95.3953C95.5412 13.3452 95.6141 13.3452 95.6871 13.4194C95.76 13.4936 95.76 13.4936 95.833 13.642L96.5624 16.9065L97.5106 14.3097C97.5836 14.1613 97.5836 14.0872 97.6565 14.0872C97.7294 14.013 97.8024 14.013 97.9483 14.013H98.8236C98.9694 14.013 99.0424 14.013 99.1153 14.0872C99.1883 14.1613 99.1883 14.2355 99.2612 14.3097L100.209 16.9065L101.012 13.642C101.012 13.5678 101.085 13.4936 101.158 13.4194C101.231 13.3452 101.304 13.3452 101.377 13.3452H103.273C103.492 13.3452 103.565 13.4194 103.565 13.5678C103.565 13.5678 103.565 13.642 103.565 13.7162L101.741 19.8742C101.668 20.0226 101.668 20.0968 101.595 20.171C101.522 20.2452 101.449 20.2452 101.304 20.2452H99.9177C99.7718 20.2452 99.6989 20.2452 99.6259 20.171C99.553 20.0968 99.48 20.0226 99.48 19.8742L98.5318 17.2775L97.5836 19.8742C97.5106 20.0226 97.5106 20.0968 97.4377 20.171C97.3647 20.2452 97.2918 20.2452 97.1459 20.2452H95.5412Z" fill="#828997"/>
<path d="M106.92 20.4677C106.045 20.4677 105.315 20.1709 104.805 19.5774C104.294 18.9839 104.002 18.1677 104.002 17.129C104.002 16.3129 104.148 15.6451 104.513 15.0516C104.878 14.458 105.388 14.0129 106.045 13.6419C106.701 13.3451 107.503 13.1226 108.306 13.1226C109.035 13.1226 109.619 13.1968 110.202 13.3451C110.786 13.4935 111.223 13.7161 111.734 14.0129V19.7258C111.734 19.8742 111.734 20.0226 111.661 20.0968C111.588 20.1709 111.442 20.1709 111.296 20.1709H109.838C109.765 20.1709 109.692 20.1709 109.619 20.0968C109.546 20.0226 109.546 20.0226 109.473 19.9484L109.254 19.5032C108.962 19.8 108.671 20.0226 108.306 20.1709C107.941 20.3935 107.503 20.4677 106.92 20.4677ZM108.014 18.5387C108.379 18.5387 108.671 18.4645 108.889 18.2419C109.108 18.0935 109.181 17.7968 109.181 17.5V15.2742C109.035 15.2 108.743 15.1258 108.525 15.1258C108.014 15.1258 107.649 15.2742 107.358 15.6451C107.066 16.0161 106.92 16.4613 106.92 17.129C106.847 18.0193 107.212 18.5387 108.014 18.5387Z" fill="#828997"/>
<path d="M113.704 23.1387C113.412 23.1387 113.266 23.0645 113.12 22.9904C113.047 22.842 112.974 22.6936 112.974 22.471V14.3097C113.412 14.0129 113.922 13.7162 114.579 13.5678C115.235 13.3452 115.892 13.271 116.548 13.271C119.393 13.271 120.779 14.4581 120.779 16.9065C120.779 18.0194 120.487 18.9097 119.904 19.5775C119.32 20.2452 118.445 20.542 117.351 20.542C117.059 20.542 116.767 20.4678 116.475 20.3936C116.184 20.3194 115.965 20.2452 115.746 20.0968V22.471C115.746 22.6936 115.673 22.9162 115.6 22.9904C115.454 23.1387 115.308 23.1387 115.016 23.1387H113.704V23.1387ZM116.767 18.5387C117.205 18.5387 117.496 18.3904 117.642 18.0936C117.861 17.7968 117.934 17.3516 117.934 16.8323C117.934 16.2387 117.788 15.7936 117.569 15.4968C117.351 15.2742 116.986 15.1258 116.475 15.1258C116.184 15.1258 115.892 15.2 115.746 15.2742V17.5C115.746 17.7968 115.819 18.0936 116.038 18.242C116.184 18.4645 116.475 18.5387 116.767 18.5387Z" fill="#828997"/>
<path fill-rule="evenodd" clip-rule="evenodd" d="M7.28235 8.89355C6.99059 7.40968 8.15765 6 9.61647 6C10.9294 6 12.0235 7.1129 12.0235 8.44839V11.4161C12.3882 11.4161 12.68 11.4161 13.0447 11.4161C13.3365 11.4161 13.7012 11.4161 13.9929 11.4161V8.44839C13.9929 7.1129 15.0871 6 16.4 6C17.8588 6 19.0259 7.40968 18.7341 8.89355L18.0776 12.3806C20.2659 13.3452 21.9435 15.0516 21.9435 17.2032V18.4645C21.9435 20.2452 20.7765 21.729 19.1718 22.6935C17.5671 23.7323 15.3788 24.3258 12.9718 24.3258C10.5647 24.3258 8.37647 23.7323 6.77176 22.6935C5.16706 21.729 4 20.2452 4 18.4645V17.2032C4 15.0516 5.67765 13.3452 7.86588 12.3806L7.28235 8.89355ZM17.2753 12.9L18.0047 8.81935C18.2235 7.78064 17.4212 6.81613 16.4 6.81613C15.4518 6.81613 14.7224 7.55807 14.7224 8.52258V12.3065C14.5035 12.3065 14.2118 12.2323 13.9929 12.2323C13.7012 12.2323 13.3365 12.2323 13.0447 12.2323C12.68 12.2323 12.3882 12.2323 12.0235 12.3065C11.8047 12.3065 11.5129 12.3806 11.2941 12.3806V8.59677C11.2941 7.63226 10.5647 6.89032 9.61647 6.89032C8.59529 6.89032 7.79294 7.85484 8.01176 8.89355L8.74118 13.0484C6.40706 13.9387 4.80235 15.571 4.80235 17.4258V18.6871C4.80235 21.5065 8.44941 23.8065 12.9718 23.8065C17.4941 23.8065 21.1412 21.5065 21.1412 18.6871V17.4258C21.2141 15.4226 19.6094 13.7903 17.2753 12.9Z" fill="#828997"/>
<path d="M21.2141 18.5386C21.2141 21.358 17.567 23.658 13.0447 23.658C8.5223 23.658 4.87524 21.358 4.87524 18.5386V17.2773H21.287V18.5386H21.2141Z" fill="#828997"/>
<path fill-rule="evenodd" clip-rule="evenodd" d="M8.01177 8.74493C7.79295 7.70622 8.5953 6.7417 9.61648 6.7417C10.5647 6.7417 11.2941 7.48363 11.2941 8.44815V12.3062C11.8777 12.232 12.4612 12.1578 13.0447 12.1578C13.6282 12.1578 14.2118 12.232 14.7224 12.232V8.44815C14.7224 7.48363 15.4518 6.7417 16.4 6.7417C17.4212 6.7417 18.2235 7.70622 18.0047 8.74493L17.2753 12.8256C19.6824 13.7159 21.2871 15.3481 21.2871 17.203C21.2871 20.0223 17.64 22.3223 13.1177 22.3223C8.5953 22.3223 4.94824 20.0223 4.94824 17.203C4.94824 15.3481 6.55295 13.7159 8.88707 12.8256L8.01177 8.74493Z" fill="#828997"/>
<path d="M10.7835 16.9063C10.7835 17.6482 10.3459 18.3159 9.90825 18.3159C9.47061 18.3159 9.03296 17.7224 9.03296 16.9063C9.03296 16.1643 9.47061 15.4966 9.90825 15.4966C10.3459 15.4966 10.7835 16.0901 10.7835 16.9063Z" fill="#090A1F"/>
<path d="M17.0565 16.9063C17.0565 17.6482 16.6188 18.3159 16.1812 18.3159C15.6706 18.3159 15.3059 17.7224 15.3059 16.9063C15.3059 16.1643 15.7436 15.4966 16.1812 15.4966C16.6188 15.4966 17.0565 16.0901 17.0565 16.9063Z" fill="#090A1F"/>
</svg>
