<svg width="600" height="600" xmlns="http://www.w3.org/2000/svg">

 <g>
  <title>Layer 1</title>
  <g stroke="null">
   <g stroke="null">
    <path stroke="null" fill="#BDE7FF" d="m496.11406,166.20608c-28.46205,-36.36521 -84.66525,-45.16726 -98.61147,-47.44565c-0.4361,-0.0712 -0.8722,-0.1513 -1.30829,-0.2136c-0.089,-0.0178 -0.2047,-0.0356 -0.2937,-0.0445c0.0089,0 0.0178,0.0089 0.0267,0.0089c-15.77072,-2.47419 -33.17012,-3.72018 -52.21602,-3.72018c-14.29332,0 -30.90063,0.6675 -49.83973,1.99359c-18.9391,1.33499 -36.8814,3.65788 -53.82691,6.97756l0,298.10391l77.74998,73.91411l0,-147.25861c65.04975,29.25414 159.87875,7.25346 191.02858,-59.54068c16.26021,-34.87001 16.95441,-84.87885 -12.70913,-122.77484zm-178.32835,16.35811c3.98718,-0.3293 8.72195,-0.6586 14.20432,-0.99679c5.48237,-0.3293 11.04484,-0.4984 16.69631,-0.4984c11.29404,0 21.59128,0.7476 30.90063,2.24279c9.30045,1.49519 17.19471,4.15628 23.67387,7.97436c6.47917,3.82698 11.46314,8.89105 14.95192,15.20112c3.48878,6.31897 5.23317,14.29332 5.23317,23.92307c0,19.93589 -6.81736,33.56172 -20.43429,40.86858c-13.62583,7.31576 -33.89102,10.96474 -60.80448,10.96474l-24.42147,0l0,-99.67947z" class="st0"/>
    <path stroke="null" fill="#1FA5FF" d="m496.11406,166.20608c-29.69914,-37.9494 -89.64032,-45.88815 -100.21346,-47.71265c30.41114,13.48343 64.79165,38.1274 70.63002,82.16436c4.29868,32.36913 -11.60554,61.21387 -29.04944,77.58979c-28.88035,27.10926 -77.62539,33.33032 -127.25152,15.77072l5.59807,-5.92737c2.05589,-2.18049 2.76789,-5.20647 1.80669,-7.65396c-1.12139,-2.83908 -9.39835,-16.55391 -19.2328,-32.49373l18.2004,-19.0281l49.10104,3.75578l-57.89419,-56.3367l-51.48622,8.13456c-5.67817,-6.74616 -11.78354,-13.11853 -18.3606,-19.0103c-36.7657,-32.92982 -87.50433,-59.73648 -155.14397,-59.40718c-4.46778,0.0178 -8.02776,3.80028 -7.79636,8.25916c2.57209,48.16654 18.414,86.94364 39.99639,117.84427c13.63473,19.5176 30.36664,36.561 49.28794,50.84543l-5.52687,49.10104l58.85539,55.3933l-5.93627,-48.88744l16.83871,-17.63971c16.75861,9.00675 31.34563,16.65181 34.23812,17.60411c2.50089,0.8188 5.48237,-0.0712 7.53826,-2.24279l11.27624,-11.95264c9.71875,9.01565 21.68028,17.62191 36.20501,24.14557c65.04975,29.25414 159.87875,7.25346 191.02858,-59.54068c16.26021,-34.87001 16.95441,-84.87885 -12.70913,-122.77484zm-295.52292,57.23559c-10.90244,11.40084 -28.97825,11.80134 -40.37908,0.8989c-11.40084,-10.90244 -11.80134,-28.97825 -0.8989,-40.37908s28.97825,-11.80134 40.37908,-0.8989c11.39194,10.90244 11.80134,28.97825 0.8989,40.37908z" class="st1"/>
   </g>
   <g stroke="null"/>
   <g stroke="null"/>
   <g stroke="null"/>
   <g stroke="null"/>
   <g stroke="null"/>
   <g stroke="null"/>
  </g>
 </g>
</svg>